<svg xmlns="http://www.w3.org/2000/svg" viewBox="0 0 512 40" role="presentation" fill="#38BDF8"><rect x="0" y="8" width="6" height="6"/><rect x="0" y="16" width="6" height="6"/><rect x="0" y="24" width="6" height="6"/><rect x="0" y="32" width="6" height="6"/><rect x="8" y="16" width="6" height="6"/><rect x="8" y="32" width="6" height="6"/><rect x="16" y="16" width="6" height="6"/><rect x="16" y="24" width="6" height="6"/><rect x="16" y="32" width="6" height="6"/><rect x="24" y="0" width="6" height="6"/><rect x="24" y="32" width="6" height="6"/><rect x="32" y="8" width="6" height="6"/><rect x="32" y="16" width="6" height="6"/><rect x="32" y="24" width="6" height="6"/><rect x="32" y="32" width="6" height="6"/><rect x="40" y="16" width="6" height="6"/><rect x="40" y="24" width="6" height="6"/><rect x="40" y="32" width="6" height="6"/><rect x="56" y="32" width="6" height="6"/><rect x="64" y="16" width="6" height="6"/><rect x="64" y="24" width="6" height="6"/><rect x="64" y="32" width="6" height="6"/><rect x="72" y="32" width="6" height="6"/><rect x="80" y="24" width="6" height="6"/><rect x="80" y="32" width="6" height="6"/><rect x="88" y="0" width="6" height="6"/><rect x="88" y="16" width="6" height="6"/><rect x="88" y="24" width="6" height="6"/><rect x="88" y="32" width="6" height="6"/><rect x="96" y="0" width="6" height="6"/><rect x="96" y="16" width="6" height="6"/><rect x="96" y="32" width="6" height="6"/><rect x="104" y="8" width="6" height="6"/><rect x="104" y="16" width="6" height="6"/><rect x="104" y="24" width="6" height="6"/><rect x="104" y="32" width="6" height="6"/><rect x="112" y="8" width="6" height="6"/><rect x="112" y="24" width="6" height="6"/><rect x="112" y="32" width="6" height="6"/><rect x="120" y="24" width="6" height="6"/><rect x="120" y="32" width="6" height="6"/><rect x="128" y="16" width="6" height="6"/><rect x="128" y="24" width="6" height="6"/><rect x="128" y="32" width="6" height="6"/><rect x="136" y="8" width="6" height="6"/><rect x="136" y="16" width="6" height="6"/><rect x="136" y="32" width="6" height="6"/><rect x="144" y="24" width="6" height="6"/><rect x="144" y="32" width="6" height="6"/><rect x="152" y="16" width="6" height="6"/><rect x="152" y="32" width="6" height="6"/><rect x="160" y="8" width="6" height="6"/><rect x="160" y="32" width="6" height="6"/><rect x="168" y="16" width="6" height="6"/><rect x="168" y="24" width="6" height="6"/><rect x="176" y="16" width="6" height="6"/><rect x="176" y="24" width="6" height="6"/><rect x="176" y="32" width="6" height="6"/><rect x="184" y="24" width="6" height="6"/><rect x="184" y="32" width="6" height="6"/><rect x="192" y="8" width="6" height="6"/><rect x="192" y="24" width="6" height="6"/><rect x="192" y="32" width="6" height="6"/><rect x="200" y="24" width="6" height="6"/><rect x="200" y="32" width="6" height="6"/><rect x="208" y="24" width="6" height="6"/><rect x="208" y="32" width="6" height="6"/><rect x="216" y="32" width="6" height="6"/><rect x="224" y="16" width="6" height="6"/><rect x="224" y="24" width="6" height="6"/><rect x="224" y="32" width="6" height="6"/><rect x="232" y="0" width="6" height="6"/><rect x="232" y="24" width="6" height="6"/><rect x="232" y="32" width="6" height="6"/><rect x="240" y="0" width="6" height="6"/><rect x="240" y="8" width="6" height="6"/><rect x="240" y="32" width="6" height="6"/><rect x="248" y="16" width="6" height="6"/><rect x="248" y="24" width="6" height="6"/><rect x="248" y="32" width="6" height="6"/><rect x="256" y="16" width="6" height="6"/><rect x="256" y="24" width="6" height="6"/><rect x="256" y="32" width="6" height="6"/><rect x="264" y="8" width="6" height="6"/><rect x="264" y="16" width="6" height="6"/><rect x="264" y="24" width="6" height="6"/><rect x="264" y="32" width="6" height="6"/><rect x="272" y="16" width="6" height="6"/><rect x="280" y="8" width="6" height="6"/><rect x="280" y="24" width="6" height="6"/><rect x="280" y="32" width="6" height="6"/><rect x="288" y="0" width="6" height="6"/><rect x="288" y="16" width="6" height="6"/><rect x="288" y="24" width="6" height="6"/><rect x="288" y="32" width="6" height="6"/><rect x="304" y="24" width="6" height="6"/><rect x="304" y="32" width="6" height="6"/><rect x="312" y="16" width="6" height="6"/><rect x="312" y="24" width="6" height="6"/><rect x="312" y="32" width="6" height="6"/><rect x="320" y="16" width="6" height="6"/><rect x="320" y="24" width="6" height="6"/><rect x="320" y="32" width="6" height="6"/><rect x="328" y="24" width="6" height="6"/><rect x="328" y="32" width="6" height="6"/><rect x="336" y="16" width="6" height="6"/><rect x="336" y="32" width="6" height="6"/><rect x="344" y="8" width="6" height="6"/><rect x="344" y="24" width="6" height="6"/><rect x="344" y="32" width="6" height="6"/><rect x="352" y="8" width="6" height="6"/><rect x="352" y="16" width="6" height="6"/><rect x="352" y="24" width="6" height="6"/><rect x="352" y="32" width="6" height="6"/><rect x="360" y="16" width="6" height="6"/><rect x="360" y="24" width="6" height="6"/><rect x="360" y="32" width="6" height="6"/><rect x="368" y="8" width="6" height="6"/><rect x="368" y="16" width="6" height="6"/><rect x="368" y="24" width="6" height="6"/><rect x="368" y="32" width="6" height="6"/><rect x="376" y="16" width="6" height="6"/><rect x="376" y="24" width="6" height="6"/><rect x="376" y="32" width="6" height="6"/><rect x="384" y="0" width="6" height="6"/><rect x="384" y="24" width="6" height="6"/><rect x="392" y="32" width="6" height="6"/><rect x="400" y="8" width="6" height="6"/><rect x="400" y="32" width="6" height="6"/><rect x="408" y="16" width="6" height="6"/><rect x="408" y="24" width="6" height="6"/><rect x="408" y="32" width="6" height="6"/><rect x="416" y="16" width="6" height="6"/><rect x="416" y="24" width="6" height="6"/><rect x="416" y="32" width="6" height="6"/><rect x="424" y="8" width="6" height="6"/><rect x="424" y="32" width="6" height="6"/><rect x="432" y="16" width="6" height="6"/><rect x="432" y="24" width="6" height="6"/><rect x="432" y="32" width="6" height="6"/><rect x="440" y="24" width="6" height="6"/><rect x="440" y="32" width="6" height="6"/><rect x="448" y="0" width="6" height="6"/><rect x="448" y="16" width="6" height="6"/><rect x="448" y="24" width="6" height="6"/><rect x="448" y="32" width="6" height="6"/><rect x="456" y="8" width="6" height="6"/><rect x="456" y="16" width="6" height="6"/><rect x="456" y="24" width="6" height="6"/><rect x="456" y="32" width="6" height="6"/><rect x="464" y="8" width="6" height="6"/><rect x="464" y="24" width="6" height="6"/><rect x="464" y="32" width="6" height="6"/><rect x="472" y="24" width="6" height="6"/><rect x="472" y="32" width="6" height="6"/><rect x="480" y="24" width="6" height="6"/><rect x="488" y="8" width="6" height="6"/><rect x="488" y="32" width="6" height="6"/><rect x="496" y="0" width="6" height="6"/><rect x="496" y="16" width="6" height="6"/><rect x="496" y="24" width="6" height="6"/><rect x="496" y="32" width="6" height="6"/><rect x="504" y="16" width="6" height="6"/><rect x="504" y="32" width="6" height="6"/></svg>